# xmcd CD database file
#
# Track frame offsets:
#	150
#	13096
#	30277
#	61126
#	71829
#	86073
#	98559
#	113664
#	130880
#	152680
#
# Disc length: 2241 seconds
#
# Revision: 0
# Processed by: cddbd v1.4PL0 Copyright (c) Steve Scherf et al.
# Submitted via: CDex 1.40Beta8
#
DISCID=7508bf0a
DTITLE=William Clarke - Hittin' Heavy
DYEAR=1978
DGENRE=Blues
TTITLE0=Hittin' Heavy
TTITLE1=Diggin' My Potatoes
TTITLE2=Blues Afterwhile
TTITLE3=Next To Me
TTITLE4=Kepp On Lovin' Her
TTITLE5=Come On Baby
TTITLE6=Keep It To Yourself
TTITLE7=Make Love To Me
TTITLE8=Hard Times
TTITLE9=So All Alone
EXTD=YEAR: 1978 ID3G: 0
EXTT0=
EXTT1=
EXTT2=
EXTT3=
EXTT4=
EXTT5=
EXTT6=
EXTT7=
EXTT8=
EXTT9=
PLAYORDER=
